<mxfile host="app.diagrams.net" modified="2022-08-18T06:59:34.549Z" agent="5.0 (Macintosh; Intel Mac OS X 10_15_7) AppleWebKit/537.36 (KHTML, like Gecko) Chrome/104.0.0.0 Safari/537.36" etag="b-KP-U3hc_HyzeC6396Y" version="20.2.3" type="github">
  <diagram id="whdR0EjhrVvSz4rh9YMy" name="第 1 页">
    <mxGraphModel dx="1131" dy="662" grid="1" gridSize="10" guides="1" tooltips="1" connect="1" arrows="1" fold="1" page="1" pageScale="1" pageWidth="827" pageHeight="1169" math="0" shadow="0">
      <root>
        <mxCell id="0" />
        <mxCell id="1" parent="0" />
        <mxCell id="41qKbRcmgnTt6UiBNlcD-38" style="edgeStyle=orthogonalEdgeStyle;rounded=0;sketch=1;orthogonalLoop=1;jettySize=auto;html=1;" edge="1" parent="1">
          <mxGeometry relative="1" as="geometry">
            <mxPoint x="815" y="234" as="targetPoint" />
            <mxPoint x="880" y="234" as="sourcePoint" />
          </mxGeometry>
        </mxCell>
        <mxCell id="41qKbRcmgnTt6UiBNlcD-12" value="Smart Contract" style="rounded=0;whiteSpace=wrap;html=1;sketch=1;dashed=1;" vertex="1" parent="1">
          <mxGeometry x="885" y="180" width="180" height="130" as="geometry" />
        </mxCell>
        <mxCell id="41qKbRcmgnTt6UiBNlcD-33" style="edgeStyle=orthogonalEdgeStyle;rounded=0;sketch=1;orthogonalLoop=1;jettySize=auto;html=1;entryX=0;entryY=0.5;entryDx=0;entryDy=0;" edge="1" parent="1" source="41qKbRcmgnTt6UiBNlcD-1" target="41qKbRcmgnTt6UiBNlcD-26">
          <mxGeometry relative="1" as="geometry" />
        </mxCell>
        <mxCell id="41qKbRcmgnTt6UiBNlcD-1" value="Frontend" style="rounded=0;whiteSpace=wrap;html=1;sketch=1;fillColor=#E6E6E6;" vertex="1" parent="1">
          <mxGeometry x="100" y="120" width="120" height="60" as="geometry" />
        </mxCell>
        <mxCell id="41qKbRcmgnTt6UiBNlcD-34" style="edgeStyle=orthogonalEdgeStyle;rounded=0;sketch=1;orthogonalLoop=1;jettySize=auto;html=1;entryX=0;entryY=0.5;entryDx=0;entryDy=0;" edge="1" parent="1" source="41qKbRcmgnTt6UiBNlcD-2" target="41qKbRcmgnTt6UiBNlcD-26">
          <mxGeometry relative="1" as="geometry" />
        </mxCell>
        <mxCell id="41qKbRcmgnTt6UiBNlcD-2" value="Backend" style="rounded=0;whiteSpace=wrap;html=1;sketch=1;fillColor=#E6E6E6;" vertex="1" parent="1">
          <mxGeometry x="100" y="250" width="120" height="60" as="geometry" />
        </mxCell>
        <mxCell id="41qKbRcmgnTt6UiBNlcD-3" value="Database" style="rounded=0;whiteSpace=wrap;html=1;sketch=1;fillColor=#E6E6E6;" vertex="1" parent="1">
          <mxGeometry x="100" y="380" width="120" height="60" as="geometry" />
        </mxCell>
        <mxCell id="41qKbRcmgnTt6UiBNlcD-4" value="React/Vue" style="text;html=1;align=center;verticalAlign=middle;resizable=0;points=[];autosize=1;strokeColor=none;fillColor=none;" vertex="1" parent="1">
          <mxGeometry x="160" y="180" width="80" height="30" as="geometry" />
        </mxCell>
        <mxCell id="41qKbRcmgnTt6UiBNlcD-5" value="Node/Java" style="text;html=1;align=center;verticalAlign=middle;resizable=0;points=[];autosize=1;strokeColor=none;fillColor=none;" vertex="1" parent="1">
          <mxGeometry x="160" y="310" width="80" height="30" as="geometry" />
        </mxCell>
        <mxCell id="41qKbRcmgnTt6UiBNlcD-6" value="MySQL" style="text;html=1;align=center;verticalAlign=middle;resizable=0;points=[];autosize=1;strokeColor=none;fillColor=none;" vertex="1" parent="1">
          <mxGeometry x="170" y="440" width="60" height="30" as="geometry" />
        </mxCell>
        <mxCell id="41qKbRcmgnTt6UiBNlcD-8" value="Ethereum" style="text;html=1;align=center;verticalAlign=middle;resizable=0;points=[];autosize=1;strokeColor=none;fillColor=none;" vertex="1" parent="1">
          <mxGeometry x="564" y="302" width="80" height="30" as="geometry" />
        </mxCell>
        <mxCell id="41qKbRcmgnTt6UiBNlcD-36" style="edgeStyle=orthogonalEdgeStyle;rounded=0;sketch=1;orthogonalLoop=1;jettySize=auto;html=1;" edge="1" parent="1" source="41qKbRcmgnTt6UiBNlcD-9">
          <mxGeometry relative="1" as="geometry">
            <mxPoint x="620" y="234" as="targetPoint" />
          </mxGeometry>
        </mxCell>
        <mxCell id="41qKbRcmgnTt6UiBNlcD-9" value="Relay Network" style="rounded=0;whiteSpace=wrap;html=1;sketch=1;" vertex="1" parent="1">
          <mxGeometry x="690" y="203" width="120" height="60" as="geometry" />
        </mxCell>
        <mxCell id="41qKbRcmgnTt6UiBNlcD-10" value="Smart Contract" style="rounded=0;whiteSpace=wrap;html=1;sketch=1;" vertex="1" parent="1">
          <mxGeometry x="905" y="203" width="120" height="60" as="geometry" />
        </mxCell>
        <mxCell id="41qKbRcmgnTt6UiBNlcD-11" value="Solidity/Vyper/Rust" style="text;html=1;align=center;verticalAlign=middle;resizable=0;points=[];autosize=1;strokeColor=none;fillColor=none;" vertex="1" parent="1">
          <mxGeometry x="949" y="263" width="120" height="30" as="geometry" />
        </mxCell>
        <mxCell id="41qKbRcmgnTt6UiBNlcD-13" value="Deploy Framework" style="text;html=1;align=center;verticalAlign=middle;resizable=0;points=[];autosize=1;strokeColor=none;fillColor=none;" vertex="1" parent="1">
          <mxGeometry x="875" y="150" width="120" height="30" as="geometry" />
        </mxCell>
        <mxCell id="41qKbRcmgnTt6UiBNlcD-14" value="Hardhat/Roundry" style="text;html=1;align=center;verticalAlign=middle;resizable=0;points=[];autosize=1;strokeColor=none;fillColor=none;" vertex="1" parent="1">
          <mxGeometry x="964" y="310" width="110" height="30" as="geometry" />
        </mxCell>
        <mxCell id="41qKbRcmgnTt6UiBNlcD-19" value="" style="endArrow=classic;startArrow=classic;html=1;rounded=0;sketch=1;" edge="1" parent="1">
          <mxGeometry width="50" height="50" relative="1" as="geometry">
            <mxPoint x="156" y="240" as="sourcePoint" />
            <mxPoint x="156" y="190" as="targetPoint" />
          </mxGeometry>
        </mxCell>
        <mxCell id="41qKbRcmgnTt6UiBNlcD-20" value="" style="endArrow=classic;startArrow=classic;html=1;rounded=0;sketch=1;entryX=-0.051;entryY=0.555;entryDx=0;entryDy=0;entryPerimeter=0;" edge="1" parent="1">
          <mxGeometry width="50" height="50" relative="1" as="geometry">
            <mxPoint x="160" y="370" as="sourcePoint" />
            <mxPoint x="159.99999999999986" y="320.65" as="targetPoint" />
          </mxGeometry>
        </mxCell>
        <mxCell id="41qKbRcmgnTt6UiBNlcD-23" value="Decentralized File System" style="rounded=0;whiteSpace=wrap;html=1;sketch=1;" vertex="1" parent="1">
          <mxGeometry x="300" y="380" width="120" height="60" as="geometry" />
        </mxCell>
        <mxCell id="41qKbRcmgnTt6UiBNlcD-24" value="" style="endArrow=classic;startArrow=classic;html=1;rounded=0;sketch=1;entryX=0.875;entryY=0.333;entryDx=0;entryDy=0;entryPerimeter=0;" edge="1" parent="1" target="41qKbRcmgnTt6UiBNlcD-5">
          <mxGeometry width="50" height="50" relative="1" as="geometry">
            <mxPoint x="320" y="370" as="sourcePoint" />
            <mxPoint x="169.99999999999977" y="330.65" as="targetPoint" />
          </mxGeometry>
        </mxCell>
        <mxCell id="41qKbRcmgnTt6UiBNlcD-25" value="IPFS/Filecoin" style="text;html=1;align=center;verticalAlign=middle;resizable=0;points=[];autosize=1;strokeColor=none;fillColor=none;" vertex="1" parent="1">
          <mxGeometry x="339" y="438" width="90" height="30" as="geometry" />
        </mxCell>
        <mxCell id="41qKbRcmgnTt6UiBNlcD-35" style="edgeStyle=orthogonalEdgeStyle;rounded=0;sketch=1;orthogonalLoop=1;jettySize=auto;html=1;entryX=0;entryY=0.5;entryDx=0;entryDy=0;" edge="1" parent="1" source="41qKbRcmgnTt6UiBNlcD-26">
          <mxGeometry relative="1" as="geometry">
            <mxPoint x="500" y="234" as="targetPoint" />
          </mxGeometry>
        </mxCell>
        <mxCell id="41qKbRcmgnTt6UiBNlcD-26" value="Interact APIs" style="rounded=0;whiteSpace=wrap;html=1;sketch=1;" vertex="1" parent="1">
          <mxGeometry x="310" y="203" width="120" height="60" as="geometry" />
        </mxCell>
        <mxCell id="41qKbRcmgnTt6UiBNlcD-27" value="wagmi/useDApp" style="text;html=1;align=center;verticalAlign=middle;resizable=0;points=[];autosize=1;strokeColor=none;fillColor=none;" vertex="1" parent="1">
          <mxGeometry x="331" y="263" width="110" height="30" as="geometry" />
        </mxCell>
        <mxCell id="41qKbRcmgnTt6UiBNlcD-40" value="Blockchain" style="rhombus;whiteSpace=wrap;html=1;dashed=1;sketch=1;fillColor=#FFFFFF;fillStyle=auto;gradientColor=#CCCCCC;" vertex="1" parent="1">
          <mxGeometry x="508" y="143" width="110" height="180" as="geometry" />
        </mxCell>
      </root>
    </mxGraphModel>
  </diagram>
</mxfile>
